HIERARCHY
ROOT Hips
{
	OFFSET 0.00000 0.00000 0.00000
	CHANNELS 6 Xposition Yposition Zposition Zrotation Yrotation Xrotation 
	JOINT LHipJoint
	{
		OFFSET 0 0 0
		CHANNELS 3 Zrotation Yrotation Xrotation
		JOINT LeftUpLeg
		{
			OFFSET 1.73240 -1.89999 0.57994
			CHANNELS 3 Zrotation Yrotation Xrotation
			JOINT LeftLeg
			{
				OFFSET 2.43106 -6.67930 0.00000
				CHANNELS 3 Zrotation Yrotation Xrotation
				JOINT LeftFoot
				{
					OFFSET 2.78854 -7.66147 0.00000
					CHANNELS 3 Zrotation Yrotation Xrotation
					JOINT LeftToeBase
					{
						OFFSET 0.17314 -0.47571 2.01064
						CHANNELS 3 Zrotation Yrotation Xrotation
						End Site
						{
							OFFSET 0.00000 -0.00000 1.04147
						}
					}
				}
			}
		}
	}
	JOINT RHipJoint
	{
		OFFSET 0 0 0
		CHANNELS 3 Zrotation Yrotation Xrotation
		JOINT RightUpLeg
		{
			OFFSET -1.57078 -1.89998 0.57994
			CHANNELS 3 Zrotation Yrotation Xrotation
			JOINT RightLeg
			{
				OFFSET -2.50166 -6.87326 0.00000
				CHANNELS 3 Zrotation Yrotation Xrotation
				JOINT RightFoot
				{
					OFFSET -2.77304 -7.61886 0.00000
					CHANNELS 3 Zrotation Yrotation Xrotation
					JOINT RightToeBase
					{
						OFFSET -0.23513 -0.64602 2.11039
						CHANNELS 3 Zrotation Yrotation Xrotation
						End Site
						{
							OFFSET -0.00000 -0.00000 1.10597
						}
					}
				}
			}
		}
	}
	JOINT LowerBack
	{
		OFFSET 0 0 0
		CHANNELS 3 Zrotation Yrotation Xrotation
		JOINT Spine
		{
			OFFSET -0.00908 2.00015 -0.35323
			CHANNELS 3 Zrotation Yrotation Xrotation
			JOINT Spine1
			{
				OFFSET 0.05647 2.02258 0.04270
				CHANNELS 3 Zrotation Yrotation Xrotation
				JOINT Neck
				{
					OFFSET 0 0 0
					CHANNELS 3 Zrotation Yrotation Xrotation
					JOINT Neck1
					{
						OFFSET -0.02074 1.73711 0.13117
						CHANNELS 3 Zrotation Yrotation Xrotation
						JOINT Head
						{
							OFFSET -0.02359 1.73615 -0.24320
							CHANNELS 3 Zrotation Yrotation Xrotation
							End Site
							{
								OFFSET -0.00579 1.75982 -0.09688
							}
						}
					}
				}
				JOINT LeftShoulder
				{
					OFFSET 0 0 0
					CHANNELS 3 Zrotation Yrotation Xrotation
					JOINT LeftArm
					{
						OFFSET 3.20537 1.11432 -0.27680
						CHANNELS 3 Zrotation Yrotation Xrotation
						JOINT LeftForeArm
						{
							OFFSET 5.05923 -0.00000 -0.00000
							CHANNELS 3 Zrotation Yrotation Xrotation
							JOINT LeftHand
							{
								OFFSET 3.51996 -0.00000 0.00000
								CHANNELS 3 Zrotation Yrotation Xrotation
								JOINT LeftFingerBase
								{
									OFFSET 0 0 0
									CHANNELS 3 Zrotation Yrotation Xrotation
									JOINT LeftHandIndex1
									{
										OFFSET 0.65238 -0.00000 0.00000
										CHANNELS 3 Zrotation Yrotation Xrotation
										End Site
										{
											OFFSET 0.52596 -0.00000 0.00000
										}
									}
								}
								JOINT LThumb
								{
									OFFSET 0 0 0
									CHANNELS 3 Zrotation Yrotation Xrotation
									End Site
									{
										OFFSET 0.53399 -0.00000 0.53399
									}
								}
							}
						}
					}
				}
				JOINT RightShoulder
				{
					OFFSET 0 0 0
					CHANNELS 3 Zrotation Yrotation Xrotation
					JOINT RightArm
					{
						OFFSET -2.96983 1.42602 -0.37449
						CHANNELS 3 Zrotation Yrotation Xrotation
						JOINT RightForeArm
						{
							OFFSET -5.40867 -0.00000 0.00000
							CHANNELS 3 Zrotation Yrotation Xrotation
							JOINT RightHand
							{
								OFFSET -3.12964 -0.00000 0.00000
								CHANNELS 3 Zrotation Yrotation Xrotation
								JOINT RightFingerBase
								{
									OFFSET 0 0 0
									CHANNELS 3 Zrotation Yrotation Xrotation
									JOINT RightHandIndex1
									{
										OFFSET -0.83271 -0.00000 0.00000
										CHANNELS 3 Zrotation Yrotation Xrotation
										End Site
										{
											OFFSET -0.67135 -0.00000 0.00000
										}
									}
								}
								JOINT RThumb
								{
									OFFSET 0 0 0
									CHANNELS 3 Zrotation Yrotation Xrotation
									End Site
									{
										OFFSET -0.68160 -0.00000 0.68160
									}
								}
							}
						}
					}
				}
			}
		}
	}
}
MOTION
Frames: 10
Frame Time: 0.0465116
0.00 0.00 0.00 0 0 0 0 0 0 -21 0 0 0 0 0 0 0 0 0 0 0 0 0 0 21 0 0 0 0 0 0 0 0 0 0 0 0 0 0 0 0 0 0 0 0 0 0 -16 0 0 21 0 0 11 0 0 0 -8 0 0 0 0 0 0 0 0 0 0 0 0 0 0 0 0 0 0 0 0 8 0 0 0 0 0 0 0 0 0 0 0 0 0 0 0 0 0
0.00 0.00 0.00 -1.5842 3.3831 -6.8708 0.0000 0.0000 0.0000 -15.5449 -8.2252 -12.1616 3.7029 11.7542 34.8680 0.2270 0.0145 -9.0049 2.7580 -10.2926 -29.9294 0.0000 0.0000 0.0000 21.6755 7.0780 -11.0125 -3.4573 -11.4009 33.6443 0.1651 -14.3514 -18.4298 -0.5652 -4.8152 13.3822 -1.3400 -2.6039 23.3123 5.9040 -3.0501 1.0613 8.4776 -1.1516 -11.4842 -11.7937 -14.2911 4.9691 0.8038 -20.3194 31.8679 0.4551 -10.6443 10.9198 -0.0000 0.0000 0.0000 -87.2816 19.3664 9.4425 31.7312 -42.3319 -12.5595 -0.0000 0.0000 -11.1016 13.0442 49.4369 9.9821 -7.1250 0.0000 -0.0000 -53.5647 74.6876 -40.0122 -0.0000 0.0000 0.0000 49.3020 2.9112 -61.2460 -48.6970 52.4563 -25.1373 0.0000 -0.0000 -39.1914 1.1241 4.1574 0.0815 7.1250 -0.0000 -0.0000 20.6166 -25.6865 10.2874
0.00 0.00 0.00 2.3372 1.6539 -5.8016 0.0000 0.0000 0.0000 -18.6450 -9.0075 -13.4725 3.3775 11.2824 33.2383 0.0696 -1.0369 -4.7276 1.3089 -7.2472 -20.4498 0.0000 0.0000 0.0000 17.0733 7.3153 -15.2444 -3.7399 -11.8060 35.0491 -0.0739 -10.8260 -16.4732 -0.9917 -6.3379 17.7680 -2.0296 -3.0682 22.9000 5.4769 -3.9576 3.2315 8.4419 -1.7435 -8.6516 -11.1195 -14.3691 2.8985 2.6519 -20.5598 29.6735 0.8700 -10.4453 10.5751 0.0000 -0.0000 0.0000 -87.5371 18.5520 9.8549 31.2266 -41.9219 -12.2210 -0.0000 0.0000 -10.1205 13.3007 50.5253 10.3416 -7.1250 0.0000 -0.0000 -57.0280 75.3063 -43.5734 0.0000 -0.0000 0.0000 50.4665 -2.0358 -50.5728 -74.6563 59.0915 -46.7525 0.0000 -0.0000 -19.2988 -0.8416 11.6070 -0.1693 7.1250 -0.0000 -0.0000 18.2434 -18.6572 12.0746
0.00 0.00 0.00 4.2948 -1.0155 -4.7346 0.0000 0.0000 0.0000 -20.1390 -9.2764 -14.9084 3.2656 11.1131 32.6623 0.2597 -1.9112 -9.1500 1.3707 -7.4094 -20.9341 0.0000 0.0000 0.0000 14.5466 8.3735 -19.3039 -3.9134 -12.0442 35.8885 0.1001 -10.3936 -13.0993 -0.6989 -5.3438 14.8918 -1.2475 -3.2114 25.1970 5.4263 -3.8951 2.8751 8.1616 -1.6513 -10.3369 -10.7086 -13.9317 3.0189 2.2509 -19.8306 29.1925 0.8114 -10.1116 10.2115 0.0000 -0.0000 0.0000 -88.4652 20.0109 9.9562 30.6870 -41.4750 -11.8620 -0.0000 0.0000 -8.7495 9.6448 51.8969 7.6168 -7.1250 0.0000 -0.0000 -64.0027 74.4711 -48.7993 0.0000 -0.0000 0.0000 50.6552 -4.6869 -41.0204 -95.4467 59.8876 -64.7152 0.0000 -0.0000 -3.2206 -2.2371 12.2693 -0.4756 7.1250 -0.0000 -0.0000 17.2415 -17.9946 11.6102
0.00 0.00 0.00 6.1252 -6.9367 -6.2058 0.0000 0.0000 0.0000 -23.5134 -0.5687 -20.1265 6.5771 14.9652 47.2561 0.5964 -3.0885 -13.8618 1.9010 -8.6568 -24.7275 0.0000 0.0000 0.0000 12.2245 11.6277 -24.3822 -4.5531 -12.8621 38.8544 0.0510 -6.9821 -8.6308 -0.5531 -4.7642 13.2372 0.7150 -3.2433 29.1209 6.2778 -3.2391 5.0444 7.9774 -1.4503 -10.0210 -10.0429 -12.9035 0.9154 1.9679 -17.8992 25.9385 0.8108 -9.1408 9.1341 -0.0000 -0.0000 0.0000 -88.5951 17.1717 15.5828 29.6924 -40.6283 -11.2088 -0.0000 0.0000 -6.4247 6.7658 50.7349 5.2480 -7.1250 0.0000 -0.0000 -62.0553 72.9494 -45.4199 -0.0000 -0.0000 0.0000 50.0976 -2.4693 -7.5158 -96.8953 59.8196 -65.9679 0.0000 0.0000 24.8393 -5.3062 10.7883 -0.9960 7.1250 -0.0000 -0.0000 15.2793 -19.3310 9.7091
0.00 0.00 0.00 6.1916 -8.4032 -6.4386 0.0000 0.0000 0.0000 -24.1226 1.7745 -22.2256 8.5077 16.4802 54.3713 0.4665 -5.0246 -12.1652 1.4430 -7.5940 -21.4877 0.0000 0.0000 0.0000 12.0585 13.4946 -26.1337 -4.7820 -13.1340 39.8721 0.0744 -6.5217 -7.0428 -0.4509 -4.3081 11.9450 1.2408 -2.7629 30.3621 7.1376 -2.3378 4.9350 7.8260 -1.0928 -10.2570 -10.4573 -13.0546 1.0544 1.6459 -18.0164 25.9783 0.7584 -9.2510 9.1468 0.0000 -0.0000 0.0000 -88.0980 16.2535 18.3284 30.5575 -41.3665 -11.7763 -0.0000 0.0000 -6.5133 6.7806 50.4864 5.2409 -7.1250 0.0000 -0.0000 -61.3054 72.8492 -44.6617 0.0000 -0.0000 0.0000 49.2179 -0.5251 2.1270 -75.2851 59.1658 -47.2922 0.0000 0.0000 29.4606 -9.9645 9.7383 -1.7022 7.1250 -0.0000 -0.0000 12.1026 -20.1954 7.3441
0.00 0.00 0.00 7.3463 -10.1592 -9.0438 0.0000 0.0000 0.0000 -28.1508 6.2970 -18.9093 13.6773 19.0132 71.2167 -0.4317 -11.7876 1.8373 1.8351 -8.5138 -24.2858 0.0000 0.0000 0.0000 10.2135 14.2066 -32.8261 -5.8743 -14.3054 44.4751 0.0364 -3.3975 -0.8945 -0.6895 -5.3084 14.7903 2.3452 -1.0222 32.8572 8.8435 0.5778 5.4208 8.0682 0.2403 -11.1475 -10.8713 -13.6767 -0.3555 -0.3485 -18.2316 25.8532 0.0421 -9.5121 9.2191 -0.0000 0.0000 0.0000 -86.7630 11.5435 22.1480 34.1069 -44.1637 -14.1875 -0.0000 0.0000 -8.1144 7.4639 48.7585 5.6262 -7.1250 0.0000 -0.0000 -55.8868 72.2802 -39.4889 -0.0000 0.0000 0.0000 51.1170 9.7369 -4.6184 -19.4559 29.9812 -5.2567 0.0000 0.0000 36.8810 -3.2060 4.5525 -0.2547 7.1250 -0.0000 -0.0000 17.4443 -25.3581 8.6802
0.00 0.00 0.00 8.8398 -9.2140 -8.0716 0.0000 0.0000 0.0000 -34.2593 1.5357 -8.4278 8.8810 16.7306 55.6778 0.1665 -8.1875 -8.6599 2.5037 -9.8446 -28.4749 0.0000 0.0000 0.0000 6.6377 16.4514 -35.2917 -3.8548 -11.9647 35.6071 -0.1211 -8.1722 7.9322 -0.8536 -5.8921 16.4716 0.5078 -1.6637 30.9961 8.1871 -1.0277 5.2329 8.9258 -0.4522 -10.3718 -8.8714 -13.1511 -0.2836 -0.9108 -17.5168 25.0781 -0.2669 -9.0767 8.6230 -0.0000 -0.0000 0.0000 -87.9445 13.5974 17.1962 36.3359 -45.7428 -15.7626 -0.0000 0.0000 -14.5947 19.9200 45.9420 14.5971 -7.1250 0.0000 -0.0000 -36.4780 75.1863 -26.7102 -0.0000 -0.0000 0.0000 63.6217 4.4900 -16.5993 -22.7873 33.8554 -7.0194 0.0000 0.0000 24.4449 -22.2666 8.7432 -3.5614 7.1250 -0.0000 -0.0000 3.3321 -20.5517 1.9535
0.00 0.00 0.00 8.1209 -14.9563 -9.3675 0.0000 0.0000 0.0000 -34.2629 0.6662 -9.8684 6.3082 14.7205 46.2063 1.1355 -3.0517 -19.3578 1.1517 -6.8140 -19.1655 0.0000 0.0000 0.0000 6.3610 17.5222 -35.8864 -3.9967 -12.1560 36.2860 -0.1963 -7.5163 8.8490 -0.2292 3.0818 -8.5065 -1.6631 -2.1894 33.1035 7.6466 -2.5993 6.8579 10.1073 -1.2716 -9.1374 -6.2801 -9.6743 -3.4555 -2.7032 -12.3093 24.4892 -0.8941 -6.6031 8.4224 -0.0000 -0.0000 0.0000 -88.7681 17.1865 19.1114 29.2113 -40.2077 -10.8969 -0.0000 0.0000 -10.5012 13.5580 44.5728 9.6059 -7.1250 0.0000 -0.0000 -39.8228 71.8847 -26.6734 -0.0000 -0.0000 0.0000 75.6346 -7.8729 -6.5919 -72.9733 58.8757 -45.3101 0.0000 0.0000 28.5757 -29.9145 11.6788 -6.6432 7.1250 -0.0000 -0.0000 -1.9016 -16.5714 -1.2810
0.00 0.00 0.00 8.0460 -18.5313 -9.9123 0.0000 0.0000 0.0000 -33.3400 0.3375 -12.9014 6.1205 14.5441 45.4634 0.9815 -1.1196 -18.3830 0.6739 -5.2495 -14.6216 0.0000 0.0000 0.0000 7.0886 19.0646 -37.8072 -7.9550 -16.0861 52.4006 0.0077 -1.9377 0.5290 -0.8087 5.7389 -16.0288 -2.1920 -2.6823 33.9849 7.2820 -3.4809 6.9114 10.3616 -1.6970 -9.2523 -4.0268 -5.2579 -4.3423 -5.0558 -5.9250 23.3535 -1.4725 -3.6487 7.8972 -0.0000 0.0000 0.0000 -90.6289 19.4633 17.1651 26.5009 -37.6990 -9.1922 -0.0000 0.0000 -11.4479 12.8782 45.9317 9.3289 -7.1250 0.0000 -0.0000 -43.7276 72.5710 -30.1668 -0.0000 0.0000 0.0000 76.0105 -11.0109 -0.3851 -99.4605 59.6591 -68.1836 0.0000 0.0000 31.8998 -27.0664 11.7994 -5.9651 7.1250 -0.0000 -0.0000 0.0825 -16.7774 0.0552
